<svg height="48" viewBox="0 0 48 48" width="48" xmlns="http://www.w3.org/2000/svg"><g fill="none" fill-rule="evenodd"><rect fill="#e5925a" height="48" rx="6" width="48"/><path d="m19 2c1.1045695 0 2 .8954305 2 2v14c0 1.1045695-.8954305 2-2 2h-3.75l-2.5172065 2.7108378c-.0167955.0180874-.0342549.0355469-.0523424.0523424-.3735791.3468948-.9414478.3536112-1.3221807.034276l-.0910639-.0866184-2.5172065-2.7108378h-3.75c-1.1045695 0-2-.8954305-2-2v-14c0-1.1045695.8954305-2 2-2zm-6.5 4-.1865485.0050309-.183919.01491984c-1.7034994.18459367-3.0295325 1.62746565-3.0295325 3.38004926v.8h-.2l-.11289409.0070123c-.44376924.0555359-.78710591.4341665-.78710591.8929877l.00701228.1128941c.05553594.4437692.43416654.7871059.89298772.7871059h.199l.001 1.1-.0082539.1453044c-.04900207.436789-.31147594.8732676-.6607461 1.0882031-.00106184.0006535-.00212183.0013087-.00403374.0006836-.25625728.1586246-.42696626.4422811-.42696626.7658089 0 .4970563.40294373.9.9.9h6.2l.1128941-.0070123c.4437692-.0555359.7871059-.4341665.7871059-.8929877 0-.4970563-.4029437-.9-.9-.9l-4.3985419.0007223c.1285873-.3517601.1985419-.725241.1985419-1.1007223l-.001-1.1h2.201l.1128941-.0070123c.4437692-.0555359.7871059-.4341665.7871059-.8929877l-.0070123-.1128941c-.0555359-.4437692-.4341665-.7871059-.8929877-.7871059h-2.2v-.8l-.001-.009.0075387-.13663261c.0735715-.81540587.7588977-1.45436739 1.5934613-1.45436739.5646826 0 1.0775257.29405675 1.3668845.76766552.2591451.42415651.8130705.55792468 1.237227.29877956s.5579247-.81307054.2987796-1.23722705c-.6130185-1.0033598-1.7045325-1.62921803-2.9028911-1.62921803z" fill="#fff" transform="translate(12 12)"/></g></svg>