<svg width="55" height="56" xmlns="http://www.w3.org/2000/svg" xmlns:xlink="http://www.w3.org/1999/xlink"><defs><path id="a" d="M.01.072h54.516v55.845H.009z"/></defs><g fill="none" fill-rule="evenodd"><g><mask id="b" fill="#fff"><use xlink:href="#a"/></mask><path fill="#FFFFFE" mask="url(#b)" d="M0 40.977h54.516V0H0zM.01 55.917h54.516V44.045H.009z"/></g><path d="M13.41 47.295c-.16 0-.321.007-.474.023v2.221c.153.008.314.016.466.016.74 0 1.167-.386 1.167-1.134 0-.765-.402-1.126-1.159-1.126zm-.016 2.872c-.153 0-.305-.008-.458-.008v2.084h-.74v-5.456a5.74 5.74 0 0 1 1.062-.104c.772 0 1.504.12 1.882.885.13.25.185.515.185.789 0 1.19-.796 1.81-1.93 1.81zM17.954 48.96a1.587 1.587 0 0 0-.362-.032c-.354 0-.66.217-.852.507v2.808h-.676V48.42h.539l.072.394a1.22 1.22 0 0 1 .974-.499c.12 0 .233.016.362.057l-.057.587M20.063 48.83c-.805 0-1.143.774-1.143 1.482s.314 1.504 1.118 1.504c.805 0 1.127-.796 1.127-1.504 0-.7-.298-1.481-1.102-1.481zm-.025 3.517c-1.215 0-1.85-.885-1.85-2.035 0-1.119.7-2.012 1.875-2.012 1.182 0 1.842.901 1.842 2.012 0 1.126-.676 2.035-1.867 2.035zM23.87 52.347c-.49 0-.804-.193-.973-.571-.08-.185-.113-.483-.113-.965v-1.924h-.555v-.458h.555v-.724l.685-.266v.99h1.07v.45h-1.07v1.972c0 .29.024.507.072.635.072.193.225.306.475.306.2 0 .426-.088.691-.281l.105.49c-.306.234-.611.346-.941.346M26.76 48.847c-.628 0-.934.523-.99 1.095h1.826c0-.025.008-.049.008-.073 0-.523-.281-1.022-.845-1.022zm1.528 1.625c-.338.009-.66 0-.973 0h-1.553c.024.7.418 1.328 1.174 1.328.443 0 .845-.152 1.223-.45l.081.555c-.418.314-.893.442-1.4.442-1.215 0-1.826-.909-1.826-2.043 0-1.087.627-2.004 1.794-2.004.306 0 .587.089.828.242.491.321.684.86.684 1.448 0 .153-.008.314-.032.482zM30.71 52.347c-1.126 0-1.89-.86-1.89-1.963 0-1.199.78-2.084 1.987-2.084.418 0 .813.105 1.167.362l-.137.523c-.322-.217-.652-.338-1.006-.338-.805 0-1.28.684-1.28 1.449 0 .772.411 1.512 1.256 1.512.378 0 .74-.112 1.086-.337l.129.506c-.41.242-.853.37-1.312.37M33.937 52.347c-.49 0-.805-.193-.974-.571-.08-.185-.112-.483-.112-.965v-1.924h-.555v-.458h.555v-.724l.684-.266v.99h1.07v.45h-1.07v1.972c0 .29.024.507.072.635.073.193.225.306.475.306.201 0 .426-.088.692-.281l.105.49c-.306.234-.612.346-.942.346M36.818 48.847c-.628 0-.934.523-.99 1.095h1.827c0-.025.008-.049.008-.073 0-.523-.282-1.022-.845-1.022zm1.528 1.625c-.337.009-.66 0-.973 0H35.82c.024.7.418 1.328 1.175 1.328.442 0 .845-.152 1.223-.45l.08.555c-.418.314-.893.442-1.4.442-1.215 0-1.826-.909-1.826-2.043 0-1.087.628-2.004 1.794-2.004.306 0 .587.089.829.242.49.321.684.86.684 1.448 0 .153-.008.314-.033.482zM41.557 49.16a1.492 1.492 0 0 0-.853-.273c-.515 0-1.11.443-1.11 1.44 0 .934.419 1.457 1.038 1.457.37 0 .732-.185.925-.402V49.16zm.153 3.083l-.08-.338a1.66 1.66 0 0 1-1.103.442c-1.03 0-1.665-.844-1.665-1.987 0-1.207.853-2.044 1.77-2.044.33 0 .7.12.925.282v-2.044h.676v5.689h-.523z" fill="#5A2167"/><g fill="#5A2167"><path d="M8.75 28.717c.413.194.946.291 1.584.291 3.177 0 5.69-2.027 7.47-6.024l2.033-4.933h3.218l.712-1.39h-3.432l.13-.31c1.164-2.796 2.664-4.214 4.46-4.214.383 0 .873.122 1.456.363l1.063-1.614A4.887 4.887 0 0 0 25.6 10.5c-3.178 0-5.692 2.028-7.471 6.028l-.06.134-5.872-.001-.714 1.393 6.014-.003-.783 1.846H9.756l-.714 1.38h7.173l-.779 1.881c-1.164 2.797-2.654 4.215-4.426 4.215-.38 0-.85-.116-1.432-.355l-.828 1.699M44.677 18.599c-.512-.496-1.077-.743-1.697-.743-.413 0-.774.106-1.085.318-.311.211-.477.49-.496.836a.863.863 0 0 0 .218.649c.16.182.444.384.847.61l1.122.625c.346.192.598.44.758.742.16.302.228.631.208.989-.053.944-.439 1.69-1.154 2.24-.714.55-1.601.825-2.657.825-.929 0-1.749-.233-2.46-.694l.9-1.485c.203.214.5.411.89.59.393.179.731.27 1.018.27.49 0 .904-.135 1.236-.398.334-.263.514-.62.54-1.07a.831.831 0 0 0-.217-.617c-.158-.18-.436-.39-.834-.625l-1.127-.643c-.347-.203-.601-.46-.762-.77-.16-.31-.232-.64-.211-.993.046-.819.4-1.476 1.067-1.971.664-.498 1.462-.748 2.39-.748.642 0 1.405.204 2.29.61l-.784 1.453M37.765 18.315c-.38-.306-.902-.458-1.57-.458-1.014 0-1.855.4-2.525 1.199-.672.8-1.04 1.781-1.105 2.947-.042.714.128 1.285.51 1.71.38.426.83.638 1.348.638.799 0 1.579-.246 2.338-.739l-.267 1.601a5.983 5.983 0 0 1-2.392.477c-1.088 0-1.907-.312-2.455-.935-.547-.624-.792-1.453-.733-2.484.095-1.682.633-3.057 1.618-4.129.984-1.07 2.19-1.606 3.62-1.606.845 0 1.503.149 1.97.44l-.357 1.34M29.358 18.599c-.51-.496-1.076-.743-1.697-.743a1.88 1.88 0 0 0-1.085.318c-.312.211-.476.49-.497.836a.862.862 0 0 0 .22.649c.158.182.442.384.848.61l1.12.625c.346.192.6.44.758.742.16.302.229.631.208.989-.053.944-.437 1.69-1.154 2.24-.715.55-1.601.825-2.657.825-.93 0-1.749-.233-2.46-.694l.9-1.485c.202.214.5.411.89.59.393.179.733.27 1.02.27.488 0 .901-.135 1.236-.398.334-.263.513-.62.54-1.07a.843.843 0 0 0-.218-.617c-.157-.18-.435-.39-.834-.625l-1.127-.643a1.92 1.92 0 0 1-.762-.77 1.88 1.88 0 0 1-.213-.993c.046-.819.402-1.476 1.068-1.971.665-.498 1.463-.748 2.39-.748.643 0 1.405.204 2.29.61l-.784 1.453"/></g></g></svg>