<svg height="48" viewBox="0 0 48 48" width="48" xmlns="http://www.w3.org/2000/svg"><g fill="none" fill-rule="evenodd"><rect fill="#a561ff" height="48" rx="6" width="48"/><path d="m12 2c.2263947 0 .4661581.03480929.6992371.12221393l6.1471425 2.30517841c.6814965.29260766 1.1536204 1.01055092 1.1536204 1.81260766v5.62c0 4.6645464-3.1937036 8.5831633-7.5137433 9.6884831-.0943907.0241507-.3462567.0615169-.4862567.0615169s-.391866-.0373662-.4862567-.0615169c-4.32003966-1.1053198-7.5137433-5.0239367-7.5137433-9.6884831v-5.62c0-.80205674.47212389-1.52 1.15362044-1.81260766l6.14714246-2.30517841c.233079-.08740464.4728424-.12221393.6992371-.12221393zm-.001 17.608-.003.001h.004v-.001zm-.004 0-.0001386.0017642.0011386-.0007642zm.003-.001.001.001h.001v-.002zm-.005-.001c.004622-.0003723.0068289-.0006249.008652-.0007359l-.001652-15.6102641v.00086081l-6 2.24782473v5.61631446c0 3.5864292 2.38072858 6.6987843 5.7561901 7.6816701zm.005.001-.005-.001-.0052864.0024037.0072864-.0004037z" fill="#fff" transform="translate(12 12)"/></g></svg>