<svg height="48" viewBox="0 0 48 48" width="48" xmlns="http://www.w3.org/2000/svg"><g fill="none" fill-rule="evenodd"><rect fill="#00a4db" height="48" rx="6" width="48"/><path d="m21 5c1.1045695 0 2 .8954305 2 2v10c0 1.1045695-.8954305 2-2 2h-18c-1.1045695 0-2-.8954305-2-2v-10c0-1.1045695.8954305-2 2-2zm-17.9989971 9.0000002-.0010029 2.9999998h3c0-1.6565199-1.34260378-2.999458-2.9989971-2.9999998zm17.9989971-.0000002c-1.6568542 0-3 1.3431458-3 3h3l.0010075-2.9999998c-.0003358-.0000001-.0006716-.0000002-.0010075-.0000002zm-9-5.5c-1.3807119 0-2.5 1.5670034-2.5 3.5s1.1192881 3.5 2.5 3.5 2.5-1.5670034 2.5-3.5-1.1192881-3.5-2.5-3.5zm9-1.5h-3c0 1.65685425 1.3431458 3 3 3zm-15 0h-3v3l.17627279-.00509269c1.57480725-.09124643 2.82372721-1.39722643 2.82372721-2.99490731z" fill="#fff" transform="translate(12 12)"/></g></svg>