<svg height="48" viewBox="0 0 48 48" width="48" xmlns="http://www.w3.org/2000/svg"><g fill="none" fill-rule="evenodd"><rect fill="#00738c" height="48" rx="6" width="48"/><path d="m9.76699106 2.35694976.06881412.09289797 5.03419482 7.55415227 4.1309258.0005479c1.6563429 0 2.9990742.8954305 2.9990742 2 0 1.0603867-1.2374611 1.928031-2.8018843 1.9957459l-.1971899.0042541-4.1339258-.0005479-5.03119482 7.5507002c-.61404964.9213588-2.04782001.3093359-1.80767935-.7716307l1.50587417-6.7790695-4.66.0000531-1.03634329 1.555195c-.62539201.9383776-2.04981994.282976-1.81093104-.7615363l.03074696-.1093916.89431469-2.6837723-.89431469-2.68377221c-.3565283-1.06991506 1.03516896-1.7922598 1.71273901-.9623656l.06744507.09143764 1.03634329 1.55420537 4.661-.0000531-1.50687417-6.78252162c-.23156421-1.04236058 1.09335263-1.64867537 1.73886523-.86452862z" fill="#fff" transform="translate(12 12)"/></g></svg>